<?xml version="1.0" encoding="utf-8"?>
<!-- Generator: Adobe Illustrator 25.2.3, SVG Export Plug-In . SVG Version: 6.00 Build 0)  -->
<svg version="1.1"
     id="svg127" inkscape:version="0.92.5 (2060ec1f9f, 2020-04-08)" sodipodi:docname="bitcoincash_card.svg" xmlns:cc="http://creativecommons.org/ns#" xmlns:dc="http://purl.org/dc/elements/1.1/" xmlns:inkscape="http://www.inkscape.org/namespaces/inkscape" xmlns:rdf="http://www.w3.org/1999/02/22-rdf-syntax-ns#" xmlns:sodipodi="http://sodipodi.sourceforge.net/DTD/sodipodi-0.dtd" xmlns:svg="http://www.w3.org/2000/svg"
     xmlns="http://www.w3.org/2000/svg" xmlns:xlink="http://www.w3.org/1999/xlink" x="0px" y="0px" viewBox="0 0 188 188"
     style="enable-background:new 0 0 188 188;" xml:space="preserve">
<style type="text/css">
	.st0{fill:#B6A4B5;}
	.st1{fill:#99849A;}
	.st2{opacity:0.5;fill:#8A7683;enable-background:new    ;}
	.st3{opacity:0.5;fill:#3F5A7C;enable-background:new    ;}
	.st4{fill:#2E576D;}
	.st5{fill:#FFFFFF;}
	.st6{opacity:0.5;}
	.st7{fill:#3F5A7C;}
	.st8{fill:none;stroke:#2E576D;stroke-miterlimit:10;}
</style>
    <sodipodi:namedview  bordercolor="#666666" borderopacity="1" gridtolerance="10" guidetolerance="10" id="namedview129" inkscape:current-layer="svg127" inkscape:cx="94" inkscape:cy="94" inkscape:pageopacity="0" inkscape:pageshadow="2" inkscape:window-height="1043" inkscape:window-maximized="1" inkscape:window-width="1848" inkscape:window-x="72" inkscape:window-y="0" inkscape:zoom="3.5505787" objecttolerance="10" pagecolor="#ffffff" showgrid="false">
	</sodipodi:namedview>
    <g id="Layer_2_1_">
	<g id="Layer_1-2">
		<circle class="st0" cx="95" cy="95" r="91"/>
        <path class="st1" d="M184,94c0,50.3-40.8,91-91.1,90.9c-50.3,0-91-40.8-90.9-91.1c0-7.9,1-15.8,3.1-23.4
			C22.6,87.3,46,96.8,70.3,96.8c6.6,0.1,13.1-0.9,19.3-3.1c14.5-5.4,24.7-18.5,31.6-32.3c4-8.2,7.2-16.8,12.6-24.2
			c4.3-5.9,9.9-10.7,16.2-14.1C171.5,40.3,184,66.4,184,94z"/>
        <path class="st2" d="M14,96c0-48.3,37.8-88.2,86-90.9C98.3,5,96.7,5,95,5C44.7,5,4,45.7,4,96s40.7,91,91,91c1.7,0,3.3,0,5-0.1
			C51.8,184.2,14,144.3,14,96z"/>
        <path class="st3" d="M174,94c0,48.3-37.8,88.2-86,90.9c1.7,0.1,3.3,0.1,5,0.1c50.3,0,91-40.7,91-91S143.3,3,93,3l0,0
			c-1.7,0-3.3,0-5,0.1C136.2,5.8,174,45.7,174,94z"/>
        <path class="st4" d="M94,188c-51.9,0-94-42.1-94-94S42.1,0,94,0s94,42.1,94,94C187.9,145.9,145.9,187.9,94,188z M94,6
			C45.4,6,6,45.4,6,94s39.4,88,88,88s88-39.4,88-88C181.9,45.4,142.6,6.1,94,6z"/>
        <path class="st4" d="M93.4,170.5c-42.8,0-77.5-34.7-77.5-77.5s34.7-77.5,77.5-77.5s77.5,34.7,77.5,77.5c0,0,0,0,0,0
			C170.9,135.8,136.2,170.4,93.4,170.5z M93.4,17.5c-41.7,0-75.5,33.8-75.5,75.5s33.8,75.5,75.5,75.5c41.7,0,75.5-33.8,75.5-75.5
			C168.9,51.3,135.1,17.5,93.4,17.5z"/>
        <circle class="st5" cx="40.4" cy="127.4" r="1.4"/>
        <circle class="st5" cx="40.5" cy="131.7" r="1.4"/>
        <circle class="st5" cx="40.5" cy="135.9" r="1.4"/>
        <circle class="st5" cx="36.4" cy="122.4" r="1.4"/>
        <circle class="st5" cx="36.5" cy="126.7" r="1.4"/>
        <circle class="st5" cx="36.5" cy="131" r="1.4"/>
        <g class="st6">
			<circle class="st7" cx="156.4" cy="62.4" r="1.4"/>
            <circle class="st7" cx="156.5" cy="66.7" r="1.4"/>
            <circle class="st7" cx="156.5" cy="70.9" r="1.4"/>
            <circle class="st7" cx="152.4" cy="57.4" r="1.4"/>
            <circle class="st7" cx="152.5" cy="61.7" r="1.4"/>
            <circle class="st7" cx="152.5" cy="65.9" r="1.4"/>
		</g>
        <g class="st6">
			<circle class="st7" cx="150.4" cy="128.4" r="1.4"/>
            <circle class="st7" cx="150.5" cy="132.7" r="1.4"/>
            <circle class="st7" cx="150.5" cy="136.9" r="1.4"/>
            <circle class="st7" cx="146.4" cy="123.4" r="1.4"/>
            <circle class="st7" cx="146.5" cy="127.7" r="1.4"/>
            <circle class="st7" cx="146.5" cy="131.9" r="1.4"/>
		</g>
        <circle class="st5" cx="38.1" cy="54.8" r="1.4"/>
        <circle class="st5" cx="35.7" cy="58.4" r="1.4"/>
        <circle class="st5" cx="33.3" cy="61.9" r="1.4"/>
        <circle class="st5" cx="37.6" cy="48.4" r="1.4"/>
        <circle class="st5" cx="35.2" cy="52" r="1.4"/>
        <circle class="st5" cx="32.9" cy="55.5" r="1.4"/>
        <g class="st6">
			<circle class="st7" cx="116.8" cy="174.5" r="1.4"/>
            <circle class="st7" cx="112.7" cy="175.8" r="1.4"/>
            <circle class="st7" cx="108.6" cy="177.1" r="1.4"/>
            <circle class="st7" cx="120.3" cy="169.2" r="1.4"/>
            <circle class="st7" cx="116.3" cy="170.5" r="1.4"/>
            <circle class="st7" cx="112.2" cy="171.8" r="1.4"/>
		</g>
        <circle class="st5" cx="30.9" cy="111.4" r="1.4"/>
        <circle class="st5" cx="30.9" cy="115.7" r="1.4"/>
        <circle class="st5" cx="31" cy="119.9" r="1.4"/>
        <line class="st8" x1="18" y1="103.3" x2="37.4" y2="103.3"/>
        <circle class="st8" cx="39" cy="103.3" r="1.5"/>
        <line class="st8" x1="17" y1="99.3" x2="33.1" y2="99.3"/>
        <circle class="st8" cx="34.7" cy="99.3" r="1.5"/>
        <line class="st8" x1="17" y1="91.2" x2="26.5" y2="91.2"/>
        <circle class="st8" cx="28.1" cy="91.2" r="1.5"/>
        <line class="st8" x1="17.5" y1="95.2" x2="37" y2="95.2"/>
        <circle class="st8" cx="38.5" cy="95.2" r="1.5"/>
        <line class="st8" x1="168.4" y1="103.3" x2="149" y2="103.3"/>
        <circle class="st8" cx="147.4" cy="103.3" r="1.5"/>
        <line class="st8" x1="169.4" y1="99.3" x2="153.3" y2="99.3"/>
        <circle class="st8" cx="151.8" cy="99.3" r="1.5"/>
        <line class="st8" x1="169.4" y1="91.2" x2="159.9" y2="91.2"/>
        <circle class="st8" cx="158.4" cy="91.2" r="1.5"/>
        <line class="st8" x1="168.9" y1="95.2" x2="149.4" y2="95.2"/>
        <circle class="st8" cx="147.9" cy="95.2" r="1.5"/>
        <g id="Layer_2_2_">
			<g id="Layer_1-2_1_">
				<path class="st4" d="M108,58.5H75.1l-2.7,15.3l29.7,0c14.6,0,19,5.3,18.8,14.1c-0.1,4.5-2,12.2-2.9,14.6
					c-2.3,6.6-6.9,14.1-24.3,14.1l-28.9,0L62.2,132H95c11.6,0,16.5-1.4,21.7-3.8c11.6-5.4,18.5-16.8,21.2-31.7
					C142.1,74.3,137,58.5,108,58.5"/>
                <path class="st4" d="M60.9,87.6c-8.6,0-9.9,5.6-10.7,9c-1.1,4.4-1.4,6.3-1.4,6.3h33.7c8.6,0,9.9-5.6,10.7-9
					c1.1-4.4,1.4-6.3,1.4-6.3H60.9z"/>
			</g>
		</g>
	</g>
</g>
</svg>