<svg xmlns="http://www.w3.org/2000/svg" viewBox="0 0 94.28 14.21"><g id="Layer_2" data-name="Layer 2"><g id="Layer_1-2" data-name="Layer 1"><path d="M0,11.63V0H2.58V3.88a1.62,1.62,0,0,1,.4-1,1.25,1.25,0,0,1,.9-.32H5.17A2.44,2.44,0,0,1,7,3.35a2.47,2.47,0,0,1,.76,1.82V9.05A2.46,2.46,0,0,1,7,10.86a2.48,2.48,0,0,1-1.82.77Zm2.58-1.3h1.3A1.3,1.3,0,0,0,5.17,9.05V5.17a1.25,1.25,0,0,0-.38-.91,1.23,1.23,0,0,0-.91-.38A1.24,1.24,0,0,0,3,4.26a1.25,1.25,0,0,0-.38.91Z"/><path d="M10.33,1.3V0h2.58V1.3Zm0,10.33v-9h2.58v9.05Z"/><path d="M16.8,0h2.58V2.58h1.29v1.3H19.38V9.05a1.13,1.13,0,0,0,.41.95,1.25,1.25,0,0,0,.76.33h.12v1.3H19.38A2.58,2.58,0,0,1,16.8,9.05V3.88H15.5V2.58h1.3Z"/><path d="M31,7.75H25.83v1.3a1.3,1.3,0,0,0,1.3,1.28h1.29a1.14,1.14,0,0,0,1.29-1.28H31q-.3,2.58-2.58,2.58H25.83a2.59,2.59,0,0,1-2.58-2.58V5.17A2.5,2.5,0,0,1,24,3.34a2.45,2.45,0,0,1,1.81-.76h2.59a2.43,2.43,0,0,1,1.82.77A2.47,2.47,0,0,1,31,5.17ZM25.83,6.46h2.59V5.17A1.22,1.22,0,0,0,28,4.26a1.29,1.29,0,0,0-1.83,0,1.25,1.25,0,0,0-.38.91Z"/><path d="M33.58,11.63V9.69a2.43,2.43,0,0,1,.65-1.79,3.18,3.18,0,0,1,1.93-.79,3.19,3.19,0,0,1-1.93-.8,2.43,2.43,0,0,1-.65-1.79V2.58h2.58V5.17a1.29,1.29,0,0,0,2.21.91,1.23,1.23,0,0,0,.38-.91V2.58h2.58V4.52a2.42,2.42,0,0,1-.64,1.79,3.19,3.19,0,0,1-1.94.8,3.19,3.19,0,0,1,1.94.8,2.4,2.4,0,0,1,.64,1.78v1.94H38.75V9.05a1.24,1.24,0,0,0-.38-.92,1.3,1.3,0,0,0-2.21.92v2.58Z"/><path d="M43.91,2.58h2.58v1.3a1.3,1.3,0,0,1,.33-1,1.35,1.35,0,0,1,1-.32h1.29a2.43,2.43,0,0,1,1.82.77,2.47,2.47,0,0,1,.76,1.82V9.05a2.59,2.59,0,0,1-2.58,2.58H46.49v2.58H43.91Zm2.58,7.75h1.3A1.27,1.27,0,0,0,48.7,10a1.19,1.19,0,0,0,.38-.9V5.17a1.22,1.22,0,0,0-.38-.91,1.27,1.27,0,0,0-.91-.38,1.24,1.24,0,0,0-.92.38,1.25,1.25,0,0,0-.38.91Z"/><path d="M54.24,11.63V0h2.58V11.63Z"/><path d="M62,2.58h2.6a2.46,2.46,0,0,1,1.82.77,2.51,2.51,0,0,1,.76,1.82V9.05a2.61,2.61,0,0,1-2.58,2.58H62a2.59,2.59,0,0,1-2.58-2.58V5.17a2.5,2.5,0,0,1,.77-1.83A2.46,2.46,0,0,1,62,2.58Zm0,2.59V9.05a1.3,1.3,0,0,0,2.6,0V5.17a1.31,1.31,0,0,0-1.3-1.29,1.22,1.22,0,0,0-.91.38A1.23,1.23,0,0,0,62,5.17Z"/><path d="M72.32,11.63H69.75v-9h2.57V5.17a3.25,3.25,0,0,1,.8-1.94,2.45,2.45,0,0,1,1.8-.65H76.2V5.17H73.62a1.25,1.25,0,0,0-.91.38,1.21,1.21,0,0,0-.39.91Z"/><path d="M85.25,7.75H80.08v1.3a1.26,1.26,0,0,0,.37.9,1.28,1.28,0,0,0,.92.38h1.3A1.13,1.13,0,0,0,84,9.05h1.3q-.3,2.58-2.58,2.58H80.08A2.59,2.59,0,0,1,77.5,9.05V5.17a2.49,2.49,0,0,1,.76-1.83,2.47,2.47,0,0,1,1.82-.76h2.59a2.46,2.46,0,0,1,1.82.77,2.51,2.51,0,0,1,.76,1.82ZM80.08,6.46h2.59V5.17a1.23,1.23,0,0,0-.39-.91,1.29,1.29,0,0,0-2.2.91Z"/><path d="M90.41,11.63H87.83v-9h2.58V5.17a3.13,3.13,0,0,1,.8-1.94A2.41,2.41,0,0,1,93,2.58h1.28V5.17H91.7a1.25,1.25,0,0,0-.91.38,1.2,1.2,0,0,0-.38.91Z"/></g></g></svg>